<svg width="3363" height="3363" viewBox="0 0 3363 3363" fill="none" xmlns="http://www.w3.org/2000/svg">
<mask id="mask0_187_100" style="mask-type:alpha" maskUnits="userSpaceOnUse" x="244" y="244" width="2875" height="2875">
<path d="M1654.52 286.727C1680.59 228.257 1764.38 230.621 1787.1 290.469L1998.89 848.179C2012.99 885.299 2054.55 903.907 2091.63 889.695L2648.68 676.168C2708.45 653.255 2766.03 714.175 2739.78 772.564L2495.18 1316.68C2478.9 1352.9 2495.13 1395.45 2531.4 1411.61L3076.27 1654.52C3134.74 1680.59 3132.38 1764.38 3072.53 1787.1L2514.82 1998.89C2477.7 2012.99 2459.09 2054.55 2473.3 2091.63L2686.83 2648.67C2709.75 2708.45 2648.82 2766.03 2590.44 2739.78L2046.32 2495.18C2010.1 2478.9 1967.55 2495.13 1951.39 2531.4L1708.48 3076.27C1682.41 3134.74 1598.62 3132.38 1575.9 3072.53L1364.11 2514.82C1350.01 2477.7 1308.45 2459.09 1271.37 2473.3L714.325 2686.83C654.549 2709.74 596.972 2648.82 623.221 2590.44L867.825 2046.32C884.105 2010.1 867.871 1967.55 831.605 1951.39L286.728 1708.48C228.257 1682.41 230.622 1598.62 290.469 1575.9L848.179 1364.11C885.299 1350.01 903.907 1308.45 889.696 1271.37L676.169 714.325C653.255 654.548 714.176 596.972 772.565 623.22L1316.68 867.825C1352.9 884.105 1395.45 867.87 1411.61 831.605L1654.52 286.727Z" fill="#FFE68B"/>
</mask>
<g mask="url(#mask0_187_100)">
<path opacity="0.95" d="M5429.85 249.212C5458.02 272.866 5470.54 311.938 5444.62 380.025C5404.41 468.971 5386.75 471.384 5339.45 554.867C5285.06 650.855 5634.62 784.135 5672.1 851.132C5711.7 921.922 5660.05 1029.71 5613.39 1132.91C5539.98 1295.31 5461.54 1467.19 5372.86 1620.38C5278.22 1783.88 5140.34 1913.23 5055.9 2078.77C4989.77 2208.41 4930.93 2380.32 4909.59 2514.68C4886.77 2658.4 4744.69 2926.31 4675.24 3059.51C4450.11 3491.26 4068.56 3581.42 3820.42 3599.56C3436.86 3627.6 3134.5 3418.27 2840.07 3231.65C2661.1 3118.22 2446.32 2926.61 2172.58 3136.06C2060.44 3221.86 1972.31 3354.31 1853.67 3412.13C1650.45 3511.19 1425.52 3462.14 1257.13 3430.44C1005.71 3383.12 786.528 3250.2 600.825 3065.71C432.899 2898.88 374.633 2571.44 275.964 2314.6C204.83 2129.44 80.8266 2067.54 -51.351 1978.46C-229.409 1858.45 -429.034 1764.69 -564.397 1569.31C-644.802 1453.26 -652.77 1266 -663.906 1081C-677.797 850.234 -694.375 648.24 -784.788 492.987C-835.85 405.306 -904.402 342.782 -929.901 222.797C-973.228 18.92 -937.302 -225.341 -815.43 -481.236C-761.836 -593.768 -675.333 -610.374 -606.194 -633.615C-447.949 -686.808 -125.435 -796.214 -42.5539 -1122.43C-5.21637 -1269.38 -43.2582 -1365.58 -37.3774 -1493.87C-35.836 -1527.51 -44.411 -1537.76 -26.92 -1576.45C76.0609 -1804.25 237.345 -1746.68 354.68 -1736.9C475.695 -1726.81 586.832 -1680.53 665.823 -1581.31C719.155 -1514.33 760.968 -1422.37 834.305 -1389.23C890.19 -1363.98 1049.1 -1281.43 1115.61 -1428.56C1200.27 -1615.83 1424.86 -1485.28 1485.68 -1457.8C1642.99 -1386.73 1771.81 -1185.42 1837.41 -974.212C1882.72 -828.34 1827.74 -590.766 1879.97 -455.696C1930.96 -323.812 1976.2 -164.853 2070.98 -93.8296C2153.41 -32.0629 2260.23 -24.8623 2362.69 -12.5039C2441.52 -2.99585 2471.64 108.645 2541.06 144.482C2670.42 211.256 2822.99 222.129 2998 84.9183C3080.1 20.5483 3132.43 -47.2306 3217.85 -69.4835C3538.05 -152.9 3871.61 -217.576 4171.55 -215.63C4185.66 -215.538 4429.64 -199.32 4267.32 -113.703L4266.29 -113.16C4244.6 -101.745 4069.49 -9.55002 4104.44 18.6967C4185.5 84.2111 4322.64 164.121 4442.08 137.143C4508.55 122.128 4584.24 60.4441 4652.47 23.4848C4704.58 -4.74147 4757 -10.4341 4808.45 -42.4597C4913.77 -108.023 5007.68 -70.4877 5091.43 -44.2016C5242.64 3.25668 5309.97 148.553 5429.85 249.212Z" fill="#2354A0"/>
</g>
</svg>
